# xmcd
#
# Track frame offsets: 
#        183
#        29025
#        46598
#        62430
#        77643
#        103988
#        121618
#        137338
#        151288
#        162245
#        179538
#        195113
#        207373
#        226388
#        240630
#
# Disc length: 3438 seconds
#
# Revision: 2
# Processed by: cddbd v1.5.2PL0 Copyright (c) Steve Scherf et al.
# Submitted via: ExactAudioCopy v0.99pb4
#
DISCID=b80d6c0f
DTITLE=The Backsliders - Live at the Royal
DYEAR=1996
DGENRE=Blues
TTITLE0=Write Me a Few Lines
TTITLE1=Moon going Down
TTITLE2=Saddle My Pony
TTITLE3=Dehlia
TTITLE4=Medley
TTITLE5=If I Had Passion Over Judgement Day
TTITLE6=Shake'em on down
TTITLE7=Louise
TTITLE8=Georgia Rag
TTITLE9=Hard Times Killing Floor
TTITLE10=I'm Going Down
TTITLE11=32-20 Blues
TTITLE12=Broke Down Engine
TTITLE13=The Gallows Pole
TTITLE14=Walkin' Blues
EXTD=
EXTT0=
EXTT1=
EXTT2=
EXTT3=
EXTT4=How Many more years\nDiddley Daddy\nBlack Betty\n
EXTT5=
EXTT6=
EXTT7=
EXTT8=
EXTT9=
EXTT10=
EXTT11=
EXTT12=
EXTT13=
EXTT14=
PLAYORDER=
